# xmcd CD database file
#
# Track frame offsets:
#	150
#	13481
#	23282
#	32044
#	49178
#	77843
#	96973
#	117339
#	136297
#	147548
#	163738
#	184068
#	207048
#	228067
#	240933
#	250152
#	265471
#	278483
#	293413
#	304723
#
# Disc length: 4548 seconds
#
# Revision: 0
# Processed by: cddbd v1.5.2PL0 Copyright (c) Steve Scherf et al.
# Submitted via: CDex 1.51
#
DISCID=0c11c214
DTITLE=Various Artist - After Summer
DYEAR=2002
DGENRE=New Age
TTITLE0=小さな贈りもの／西村由紀江
TTITLE1=Angel of Hope／David Lanz
TTITLE2=Silence／松尾泰伸
TTITLE3=The Endless Mountains／Wayne Gratz
TTITLE4=History／吉俣良
TTITLE5=In Moonlight Blue／Eric Tingstad 
TTITLE6=The Water is Wide／藤田恵美
TTITLE7=DREAM／岡崎倫典
TTITLE8=PUA MAE'OLE／Sandii
TTITLE9=Nagi&Nami／宮野弘紀
TTITLE10=I'M NOTHING WITHOUT YOU／佐藤正美
TTITLE11=熱いあやまち／羽田健太郎
TTITLE12=忘れられない思い出／崎谷健次郎
TTITLE13=The Thought by memory／桑野聖ストリングス
TTITLE14=恋する瞬間／大島ミチル
TTITLE15=Four Seasons／日向敏文
TTITLE16=Canon／深田恭子
TTITLE17=Teardrops of the Moon 月の涙／shezoo
TTITLE18=月ノ夜ハ疑惑サエ美シキ幻想／周防義和
TTITLE19=SOLEDAD／石田泰尚・松原孝政・中岡太志
EXTD=YEAR: 2002
EXTT0=
EXTT1=
EXTT2=
EXTT3=
EXTT4=
EXTT5=
EXTT6=
EXTT7=
EXTT8=
EXTT9=
EXTT10=
EXTT11=
EXTT12=
EXTT13=
EXTT14=
EXTT15=
EXTT16=
EXTT17=
EXTT18=
EXTT19=
PLAYORDER=
